<svg xmlns="http://www.w3.org/2000/svg" width="500" height="500" viewBox="0 0 500 500">
  <defs>
    <style>
      .cls-1 {
        fill-rule: evenodd;
      }
    </style>
  </defs>
  <g id="calendar">
    <path id="Прямоугольник_9_копия_4" data-name="Прямоугольник 9 копия 4" class="cls-1" d="M653,68h395c29.27,0,52,23.729,52,53V446a53,53,0,0,1-53,53H653a53,53,0,0,1-53-53V121A53,53,0,0,1,653,68ZM713,0h30a17,17,0,0,1,17,17V68H696V17A17,17,0,0,1,713,0ZM958,0h30a17,17,0,0,1,17,17V68H941V17A17,17,0,0,1,958,0ZM668.168,382.2h33.937a17,17,0,0,1,17,17v33.937a17,17,0,0,1-17,17H668.168a17,17,0,0,1-17-17V399.2A17,17,0,0,1,668.168,382.2Zm109.909,0h33.937a17,17,0,0,1,17,17v33.937a17,17,0,0,1-17,17H778.077a17,17,0,0,1-17-17V399.2A17,17,0,0,1,778.077,382.2Zm109.909,0h33.937a17,17,0,0,1,17,17v33.937a17,17,0,0,1-17,17H887.986a17,17,0,0,1-17-17V399.2A17,17,0,0,1,887.986,382.2Zm109.909,0h33.935a17,17,0,0,1,17,17v33.937a17,17,0,0,1-17,17H997.9a17,17,0,0,1-17-17V399.2A17,17,0,0,1,997.9,382.2ZM668.168,276.016h33.937a17,17,0,0,1,17,17v33.937a17,17,0,0,1-17,17H668.168a17,17,0,0,1-17-17V293.016A17,17,0,0,1,668.168,276.016Zm109.909,0h33.937a17,17,0,0,1,17,17v33.937a17,17,0,0,1-17,17H778.077a17,17,0,0,1-17-17V293.016A17,17,0,0,1,778.077,276.016Zm109.909,0h33.937a17,17,0,0,1,17,17v33.937a17,17,0,0,1-17,17H887.986a17,17,0,0,1-17-17V293.016A17,17,0,0,1,887.986,276.016Zm109.909,0h33.935a17,17,0,0,1,17,17v33.937a17,17,0,0,1-17,17H997.9a17,17,0,0,1-17-17V293.016A17,17,0,0,1,997.9,276.016Z" transform="translate(-600)"/>
  </g>
</svg>
