<svg xmlns="http://www.w3.org/2000/svg" width="500" height="500" viewBox="0 0 500 500">
  <defs>
    <style>
      .cls-1 {
        fill-rule: evenodd;
      }
    </style>
  </defs>
  <g id="exit">
    <path id="Прямоугольник_16" data-name="Прямоугольник 16" class="cls-1" d="M722,600h325a53,53,0,0,1,53,53v394a53,53,0,0,1-53,53H722V600Zm0,47.009L1021,647a34.015,34.015,0,0,1,34.01,34.009v339a34,34,0,0,1-34,34H722v-407ZM722,818l232.992-.016a28,28,0,0,1,0,56L722,874V818Zm0.08,147.683-0.086.087L600.016,843.792,722.022,721.785Z" transform="translate(-600 -600)"/>
  </g>
</svg>
