<svg xmlns="http://www.w3.org/2000/svg" width="500" height="500" viewBox="0 0 500 500">
  <defs>
    <style>
      .cls-1 {
        fill-rule: evenodd;
      }
    </style>
  </defs>
  <g id="key">
    <path id="Прямоугольник_592_копия_5" data-name="Прямоугольник 592 копия 5" class="cls-1" d="M995,1800h105v104h-51l25-25Zm53,105v51H997Zm-51,51v52H945Zm-79,79,26-26v52Zm77.028-234.98L1074,1879,855,2098l-78.5-79.45ZM918,2035l26,26-63,62-26-25Z" transform="translate(-600 -1800)"/>
    <path id="Эллипс_12" data-name="Эллипс 12" class="cls-1" d="M746.5,2007A146.5,146.5,0,1,1,600,2153.5,146.5,146.5,0,0,1,746.5,2007Zm-44,140a44.5,44.5,0,1,1-44.5,44.5A44.5,44.5,0,0,1,702.5,2147Z" transform="translate(-600 -1800)"/>
  </g>
</svg>
