<svg xmlns="http://www.w3.org/2000/svg" width="500" height="500" viewBox="0 0 500 500">
  <defs>
    <style>
      .cls-1 {
        fill-rule: evenodd;
      }
    </style>
  </defs>
  <g id="lock">
    <path id="Прямоугольник_583_копия" data-name="Прямоугольник 583 копия" class="cls-1" d="M208.994,1200.99h89.991a65,65,0,0,1,65,65v59.02a65,65,0,0,1-65,65H208.994a65,65,0,0,1-65-65v-59.02A65,65,0,0,1,208.994,1200.99Zm12.5,38.07h64.992a34,34,0,0,1,34,34v63.39a34,34,0,0,1-34,34H221.5a34,34,0,0,1-34-34v-63.39A34,34,0,0,1,221.5,1239.06Z" transform="translate(0 -1200)"/>
    <path id="Прямоугольник_593" data-name="Прямоугольник 593" class="cls-1" d="M109,1305H399a53,53,0,0,1,53,53v290a53,53,0,0,1-53,53H109a53,53,0,0,1-53-53V1358A53,53,0,0,1,109,1305Zm145,98a61,61,0,1,1-61,61A61,61,0,0,1,254,1403Zm0,122a61.471,61.471,0,0,0,19-3v83a19,19,0,0,1-38,0v-83A62.048,62.048,0,0,0,254,1525Z" transform="translate(0 -1200)"/>
  </g>
</svg>
