<svg xmlns="http://www.w3.org/2000/svg" width="500" height="500" viewBox="0 0 500 500">
  <defs>
    <style>
      .cls-1 {
        fill-rule: evenodd;
      }
    </style>
  </defs>
  <g id="settings">
    <g id="Группа_1" data-name="Группа 1">
      <path id="Эллипс_9" data-name="Эллипс 9" class="cls-1" d="M250,850H499c0.012-.615-0.1-26.443-0.1-27.022,0.075-16.57-12.836-23.35-21.817-25.783-7.779-2.08-14.195-3.517-32.724-7.933-1.2-.286-2.583-0.581-3.966-0.992-10.664-3.167-16.122-7.917-17.85-11.9-2.264-5.221-1.244-11.271,2.975-18.841,8.084-14.5,16.657-27.086,20.825-33.716,4.668-8.962,4.954-23.611-4.959-34.708-19.774-20.993-14.824-16.014-31.732-32.724-9.508-8.345-24.177-8.3-30.741-4.958-10.154,5.178-22.981,13.293-25.782,14.875-1.658.935-3.278,1.9-4.959,2.975-0.925.593-2.5,1.671-2.975,1.983-5.751,3.8-17.632,8.59-25.782,3.967-5.607-3.181-7.34-9.61-8.925-15.867-0.883-3.485-9.7-34.927-9.916-35.7-0.266-.956-0.591-1.939-0.992-2.975C295.776,610.847,290.33,601,277,601H250C250.015,609.3,250,850,250,850Zm0,0v249h27c16.57,0.08,23.124-12.69,25.557-21.67,2.08-7.78,3.517-14.19,7.933-32.72,0.287-1.2.581-2.58,0.992-3.97,3.167-10.66,7.917-16.12,11.9-17.85,5.221-2.26,11.271-1.24,18.841,2.98,14.5,8.08,27.086,16.66,33.716,20.82,8.962,4.67,23.611,4.96,34.708-4.96,20.993-19.77,16.014-14.82,32.724-31.73,8.345-9.51,8.305-24.175,4.958-30.739-5.178-10.154-13.293-22.981-14.875-25.783-0.935-1.657-1.9-3.277-2.975-4.958-0.593-.925-1.671-2.5-1.983-2.975-3.8-5.752-8.59-17.632-3.966-25.782,3.18-5.607,9.609-7.34,15.866-8.925,3.485-.883,34.927-9.7,35.7-9.916,0.956-.266,1.939-0.591,2.975-0.992C488.905,896.024,499,890.33,499,877V850C490.7,850.015,250,850,250,850Zm0,0H1c-0.012.614,0.1,25.664,0.1,26.243C1.023,892.8,13.934,899.569,22.915,902c7.779,2.078,14.2,3.514,32.724,7.925,1.2,0.287,2.583.581,3.967,0.991,10.663,3.165,16.122,7.909,17.85,11.888,2.264,5.215,1.244,11.26-2.975,18.822-8.084,14.49-16.657,27.059-20.824,33.682-4.669,8.953-4.955,23.588,4.958,34.672,19.775,20.97,14.824,16,31.732,32.69,9.508,8.34,24.177,8.3,30.741,4.96,10.154-5.18,22.981-13.28,25.782-14.86,1.658-.94,3.278-1.9,4.959-2.98,0.925-.59,2.5-1.67,2.975-1.98,5.751-3.79,17.632-8.58,25.782-3.96,5.607,3.18,7.34,9.6,8.925,15.85,0.883,3.48,9.7,34.89,9.916,35.66,0.266,0.96.591,1.94,0.992,2.98,3.806,9.82,9.252,20.66,22.582,20.66h27C249.985,1090.71,250,850,250,850Zm0,0V601c-3.665-.012-26.42,0-27,0-16.57-.076-23.124,13.169-25.557,22.141-2.08,7.771-3.517,14.181-7.933,32.691-0.287,1.2-.581,2.581-0.992,3.963-3.167,10.653-7.917,16.106-11.9,17.832-5.221,2.262-11.271,1.243-18.841-2.972-14.5-8.076-27.086-16.641-33.716-20.8-8.962-4.664-23.611-4.95-34.708,4.953-20.994,19.755-16.015,14.81-32.724,31.7-8.346,9.5-8.3,24.153-4.958,30.71,5.178,10.144,13.293,22.958,14.875,25.757,0.936,1.656,1.9,3.275,2.975,4.954,0.593,0.924,1.672,2.5,1.983,2.972,3.8,5.746,8.59,17.614,3.966,25.757-3.18,5.6-9.609,7.332-15.866,8.915-3.485.882-34.927,9.693-35.7,9.907-0.956.265-1.939,0.59-2.975,0.991C11.1,804.27,1.1,809.936,1.1,823.253v0.99C1.1,834.758,1,838.291,1,850,9.3,849.985,250,850,250,850Zm59.73-88.682A102,102,0,1,1,167.318,784.27,102,102,0,0,1,309.73,761.318Z" transform="translate(0 -600)"/>
    </g>
  </g>
</svg>
