<svg xmlns="http://www.w3.org/2000/svg" width="500" height="500" viewBox="0 0 500 500">
  <defs>
    <style>
      .cls-1 {
        fill-rule: evenodd;
      }
    </style>
  </defs>
  <g id="stats">
    <path id="Прямоугольник_9_копия_3" data-name="Прямоугольник 9 копия 3" class="cls-1" d="M1840,217a40,40,0,0,1,40,40V461a40,40,0,0,1-80,0V257A40,40,0,0,1,1840,217ZM1979,0a40,40,0,0,1,40,40V460a40,40,0,0,1-80,0V40A40,40,0,0,1,1979,0Zm141,149a40,40,0,0,1,40,40V460a40,40,0,0,1-80,0V189A40,40,0,0,1,2120,149Zm140-69a40,40,0,0,1,40,40V460a40,40,0,0,1-80,0V120A40,40,0,0,1,2260,80Z" transform="translate(-1800)"/>
  </g>
</svg>
