<svg width="146" height="39" viewBox="0 0 146 39" fill="none" xmlns="http://www.w3.org/2000/svg">
<path fill-rule="evenodd" clip-rule="evenodd" d="M1 37.5781V1.11206H11.209V37.5781H1Z" fill="#0000FF" stroke="white"/>
<path fill-rule="evenodd" clip-rule="evenodd" d="M54.671 37.634L45.234 24.792L56.064 24.787L65.502 37.629L54.671 37.634Z" fill="#0000FF" stroke="white"/>
<path fill-rule="evenodd" clip-rule="evenodd" d="M144.337 20.183C144.337 20.183 141.771 20.127 139.151 20.127C137.87 20.127 135.198 20.139 133.979 20.139C133.979 24.353 131.957 27.139 129.017 27.205C120.852 27.188 115.743 27.205 109.388 27.205V37.577C109.916 37.585 128.088 37.577 129.895 37.577C131.546 37.577 144.337 37.938 144.337 20.183Z" fill="#0000FF" stroke="white"/>
<path fill-rule="evenodd" clip-rule="evenodd" d="M144.337 18.506C144.337 18.506 141.771 18.562 139.151 18.562C137.87 18.562 135.198 18.55 133.979 18.55C133.979 14.336 131.957 11.55 129.017 11.484C120.852 11.501 115.743 11.484 109.388 11.484V1.11195C109.916 1.10395 128.088 1.11195 129.895 1.11195C131.546 1.11195 144.337 0.749954 144.337 18.506Z" fill="#0000FF" stroke="white"/>
<path fill-rule="evenodd" clip-rule="evenodd" d="M71.701 17.295C71.701 17.295 69.06 17.295 66.361 17.295H61.021C61.021 12.626 58.954 12.373 55.928 12.305C47.522 12.323 42.261 12.305 35.718 12.305V1.31201C36.262 1.30401 54.976 1.31201 56.832 1.31201C58.531 1.31201 71.701 0.540017 71.701 17.295Z" fill="#0000FF" stroke="white"/>
<path fill-rule="evenodd" clip-rule="evenodd" d="M71.721 16.318C71.721 16.318 69.004 16.318 66.229 16.318H60.736C60.736 20.403 58.61 20.625 55.497 20.685C46.85 20.669 41.439 20.685 34.709 20.685V30.306C35.268 30.313 54.518 30.306 56.426 30.306C58.175 30.306 71.721 30.979 71.721 16.318Z" fill="#0000FF" stroke="white"/>
<path fill-rule="evenodd" clip-rule="evenodd" d="M134.15 15.77H145.243V23.498H134.15V15.77Z" fill="#0000FF" stroke="white"/>
<path fill-rule="evenodd" clip-rule="evenodd" d="M74.4559 18.5211C74.4559 18.5211 77.0199 18.5771 79.6399 18.5771C80.9199 18.5771 83.5909 18.5661 84.8089 18.5661C84.8089 14.3501 86.8309 11.5611 89.7689 11.4971C97.9299 11.5141 103.038 11.4971 109.391 11.4971V1.11806C108.862 1.11006 90.6909 1.11806 88.8909 1.11806C87.2409 1.11806 74.4559 0.757057 74.4559 18.5211Z" fill="#0000FF" stroke="white"/>
<path fill-rule="evenodd" clip-rule="evenodd" d="M74.4559 20.1991C74.4559 20.1991 77.0199 20.1431 79.6399 20.1431C80.9199 20.1431 83.5909 20.1541 84.8089 20.1541C84.8089 24.3701 86.8309 27.1591 89.7689 27.2231C97.9299 27.2061 103.038 27.2231 109.391 27.2231V37.6021C108.862 37.6101 90.6909 37.6021 88.8909 37.6021C87.2409 37.6021 74.4559 37.9631 74.4559 20.1991Z" fill="#0000FF" stroke="white"/>
<path fill-rule="evenodd" clip-rule="evenodd" d="M85.446 23.503H74.355V15.741H85.446V23.503Z" fill="#0000FF" stroke="white"/>
<path fill-rule="evenodd" clip-rule="evenodd" d="M11.083 20.186H58.833V31.286H11.083V20.186Z" fill="#0000FF" stroke="white"/>
<path fill-rule="evenodd" clip-rule="evenodd" d="M10.075 1H58.457V12.386H10.075V1Z" fill="#0000FF" stroke="white"/>
</svg>
