<svg width="21" height="20" viewBox="0 0 21 20" fill="none" xmlns="http://www.w3.org/2000/svg">
<path fill-rule="evenodd" clip-rule="evenodd" d="M5.8501 0.689942H17.8401C18.3593 0.689676 18.8573 0.895535 19.2249 1.2623C19.5924 1.62906 19.7993 2.12673 19.8 2.64594V17.1839C19.7993 17.7032 19.5924 18.2008 19.2249 18.5676C18.8573 18.9343 18.3593 19.1402 17.8401 19.1399H5.8501V0.689942ZM5.8501 2.42394H16.8899C17.222 2.42474 17.5403 2.55737 17.7747 2.7927C18.0091 3.02803 18.1404 3.3468 18.1399 3.67894V16.1879C18.1404 16.5201 18.0091 16.8388 17.7747 17.0742C17.5403 17.3095 17.222 17.4421 16.8899 17.4429H5.8501V2.42394ZM4.18994 8.73393H14.45C14.7239 8.73393 14.9867 8.84277 15.1804 9.0365C15.3741 9.23022 15.4829 9.49297 15.4829 9.76694C15.4829 10.0409 15.3741 10.3037 15.1804 10.4974C14.9867 10.6911 14.7239 10.7999 14.45 10.7999H4.18994C3.91597 10.7999 3.6532 10.6911 3.45947 10.4974C3.26575 10.3037 3.15698 10.0409 3.15698 9.76694C3.15698 9.49297 3.26575 9.23022 3.45947 9.0365C3.6532 8.84277 3.91597 8.73393 4.18994 8.73393ZM5.8501 14.1839L1.3501 9.68394L5.8501 5.18394V14.1839Z" fill="black" stroke="white"/>
</svg>
