<svg width="147" height="38" viewBox="0 0 147 38" fill="none" xmlns="http://www.w3.org/2000/svg">
<path fill-rule="evenodd" clip-rule="evenodd" d="M1.29102 37.266V0.800049H11.5V37.266H1.29102Z" fill="#0000FF" stroke="white"/>
<path fill-rule="evenodd" clip-rule="evenodd" d="M54.962 37.322L45.525 24.48L56.355 24.475L65.793 37.317L54.962 37.322Z" fill="#0000FF" stroke="white"/>
<path fill-rule="evenodd" clip-rule="evenodd" d="M144.628 19.8709C144.628 19.8709 142.062 19.8149 139.442 19.8149C138.161 19.8149 135.489 19.8269 134.27 19.8269C134.27 24.0409 132.248 26.8269 129.308 26.8929C121.143 26.8759 116.034 26.8929 109.679 26.8929V37.2649C110.207 37.2729 128.379 37.2649 130.186 37.2649C131.837 37.2649 144.628 37.6259 144.628 19.8709Z" fill="#0000FF" stroke="white"/>
<path fill-rule="evenodd" clip-rule="evenodd" d="M144.628 18.1939C144.628 18.1939 142.062 18.2499 139.442 18.2499C138.161 18.2499 135.489 18.2379 134.27 18.2379C134.27 14.0239 132.248 11.2379 129.308 11.1719C121.143 11.1889 116.034 11.1719 109.679 11.1719V0.799942C110.207 0.791942 128.379 0.799942 130.186 0.799942C131.837 0.799942 144.628 0.437943 144.628 18.1939Z" fill="#0000FF" stroke="white"/>
<path fill-rule="evenodd" clip-rule="evenodd" d="M71.992 16.983C71.992 16.983 69.351 16.983 66.652 16.983H61.312C61.312 12.314 59.245 12.061 56.219 11.993C47.813 12.011 42.552 11.993 36.009 11.993V1C36.553 0.992003 55.267 1 57.123 1C58.822 1 71.992 0.228005 71.992 16.983Z" fill="#0000FF" stroke="white"/>
<path fill-rule="evenodd" clip-rule="evenodd" d="M72.012 16.006C72.012 16.006 69.295 16.006 66.52 16.006H61.027C61.027 20.091 58.901 20.313 55.788 20.373C47.141 20.357 41.73 20.373 35 20.373V29.994C35.559 30.001 54.809 29.994 56.717 29.994C58.466 29.994 72.012 30.667 72.012 16.006Z" fill="#0000FF" stroke="white"/>
<path fill-rule="evenodd" clip-rule="evenodd" d="M134.441 15.458H145.534V23.186H134.441V15.458Z" fill="#0000FF" stroke="white"/>
<path fill-rule="evenodd" clip-rule="evenodd" d="M74.7469 18.209C74.7469 18.209 77.311 18.265 79.931 18.265C81.211 18.265 83.882 18.254 85.1 18.254C85.1 14.038 87.122 11.249 90.06 11.185C98.221 11.202 103.329 11.185 109.682 11.185V0.806046C109.153 0.798046 90.982 0.806046 89.182 0.806046C87.532 0.806046 74.7469 0.445045 74.7469 18.209Z" fill="#0000FF" stroke="white"/>
<path fill-rule="evenodd" clip-rule="evenodd" d="M74.7469 19.8871C74.7469 19.8871 77.311 19.8311 79.931 19.8311C81.211 19.8311 83.882 19.8421 85.1 19.8421C85.1 24.0581 87.122 26.8471 90.06 26.9111C98.221 26.8941 103.329 26.9111 109.682 26.9111V37.2901C109.153 37.2981 90.982 37.2901 89.182 37.2901C87.532 37.2901 74.7469 37.6511 74.7469 19.8871Z" fill="#0000FF" stroke="white"/>
<path fill-rule="evenodd" clip-rule="evenodd" d="M85.737 23.191H74.646V15.429H85.737V23.191Z" fill="#0000FF" stroke="white"/>
<path fill-rule="evenodd" clip-rule="evenodd" d="M11.374 19.874H59.124V30.974H11.374V19.874Z" fill="#0000FF" stroke="white"/>
<path fill-rule="evenodd" clip-rule="evenodd" d="M10.366 0.687988H58.748V12.074H10.366V0.687988Z" fill="#0000FF" stroke="white"/>
</svg>
