<svg width="17" height="23" viewBox="0 0 17 23" fill="black" xmlns="http://www.w3.org/2000/svg">
<path fill-rule="evenodd" clip-rule="evenodd" d="M3.04006 17.1851H16.49V22.1851H3.04006C2.72184 22.1851 2.40675 22.1224 2.11281 22.0004C1.81888 21.8785 1.55195 21.6998 1.32717 21.4745C1.10238 21.2493 0.924075 20.9819 0.802753 20.6877C0.681431 20.3936 0.619478 20.0783 0.620136 19.7601V19.6091C0.61961 19.291 0.681616 18.9759 0.802997 18.6818C0.924378 18.3877 1.10264 18.1205 1.32741 17.8953C1.55218 17.6702 1.81919 17.4916 2.11306 17.3697C2.40692 17.2479 2.72192 17.1851 3.04006 17.1851ZM16.49 18.7681V20.5601H3.28005C3.04948 20.5601 2.82843 20.4686 2.6653 20.3057C2.50217 20.1427 2.4102 19.9217 2.40993 19.6911V19.6371C2.4102 19.4066 2.50217 19.1855 2.6653 19.0226C2.82843 18.8596 3.04948 18.7681 3.28005 18.7681H16.49ZM2.82009 1.34912H16.49V18.8101H2.82009C2.53042 18.8101 2.2436 18.7529 1.97609 18.6418C1.70859 18.5307 1.46566 18.3678 1.26125 18.1626C1.05684 17.9573 0.89496 17.7137 0.784931 17.4458C0.674901 17.1778 0.618951 16.8908 0.620136 16.6011V3.55812C0.618951 3.26846 0.674901 2.98141 0.784931 2.71346C0.89496 2.4455 1.05684 2.2019 1.26125 1.99666C1.46566 1.79142 1.70859 1.62856 1.97609 1.51744C2.2436 1.40632 2.53042 1.34912 2.82009 1.34912ZM0.620136 16.3091H2.37014V20.2681H0.620136V16.3091Z" fill="white" stroke="white"/>
</svg>
