<svg width="19" height="25" viewBox="0 0 19 25" fill="none" xmlns="http://www.w3.org/2000/svg">
<path fill-rule="evenodd" clip-rule="evenodd" d="M9.25 8.7099C11.5084 8.7099 13.6744 9.60659 15.272 11.2029C16.8696 12.7992 17.7682 14.9645 17.77 17.2229V23.9889H0.879884V17.0889C0.878823 14.8679 1.76018 12.7374 3.32983 11.1661C4.89949 9.59474 7.02899 8.71123 9.25 8.7099ZM9.3501 0.972904C10.1153 0.973101 10.8631 1.20023 11.4993 1.62552C12.1354 2.05082 12.6312 2.6552 12.9238 3.36225C13.2165 4.06929 13.293 4.84722 13.1436 5.59769C12.9941 6.34816 12.6252 7.03745 12.084 7.5784C11.5428 8.11935 10.8533 8.48766 10.1028 8.63675C9.35223 8.78584 8.57432 8.70904 7.86743 8.41602C7.16054 8.123 6.55656 7.62694 6.13159 6.99057C5.70663 6.35421 5.47978 5.60613 5.47998 4.84092C5.47959 4.33268 5.57956 3.82937 5.77393 3.35978C5.9683 2.89018 6.25333 2.4635 6.61279 2.10422C6.97226 1.74494 7.39896 1.46009 7.86865 1.26596C8.33835 1.07184 8.84187 0.972246 9.3501 0.972904Z" fill="black" stroke="white"/>
</svg>
