<svg width="24" height="23" viewBox="0 0 24 23" fill="none" xmlns="http://www.w3.org/2000/svg">
<path fill-rule="evenodd" clip-rule="evenodd" d="M3.32007 3.73112H20.4299C20.7294 3.73186 21.0258 3.79223 21.3018 3.9087C21.5777 4.02517 21.8277 4.1954 22.0371 4.40949C22.2465 4.62358 22.4113 4.87723 22.5217 5.15565C22.6321 5.43406 22.6858 5.73168 22.6799 6.03112V20.1001C22.6799 20.7084 22.4389 21.2919 22.0098 21.7229C21.5806 22.154 20.9982 22.3975 20.3899 22.4001H3.32007C2.7118 22.3975 2.12937 22.154 1.7002 21.7229C1.27102 21.2919 1.03002 20.7084 1.03003 20.1001V6.02611C1.03134 5.41871 1.27287 4.83648 1.7019 4.40652C2.13094 3.97655 2.71267 3.73376 3.32007 3.73112ZM5.91992 0.787115H7.21997C7.31692 0.786721 7.41299 0.805462 7.50269 0.842261C7.59238 0.879059 7.67393 0.933192 7.74268 1.00156C7.81142 1.06993 7.86604 1.15119 7.90332 1.24068C7.9406 1.33018 7.95983 1.42615 7.95996 1.52311V3.73112H5.18994V1.52311C5.18967 1.32886 5.26629 1.14242 5.40308 1.00451C5.53986 0.866595 5.72568 0.788437 5.91992 0.787115ZM16.53 0.787115H17.8301C17.927 0.786721 18.0231 0.805462 18.1128 0.842261C18.2025 0.879059 18.284 0.933192 18.3528 1.00156C18.4215 1.06993 18.4761 1.15119 18.5134 1.24068C18.5507 1.33018 18.5699 1.42615 18.5701 1.52311V3.73112H15.8V1.52311C15.799 1.42667 15.817 1.33098 15.8533 1.2416C15.8895 1.15222 15.9431 1.07092 16.011 1.00245C16.0789 0.93397 16.1599 0.879669 16.249 0.842703C16.3381 0.805737 16.4336 0.786845 16.53 0.787115ZM3.97998 17.3371H5.44995C5.54695 17.3369 5.64321 17.3557 5.73291 17.3926C5.82261 17.4295 5.90417 17.4838 5.9729 17.5522C6.04163 17.6207 6.09603 17.702 6.1333 17.7915C6.17057 17.8811 6.18981 17.9771 6.18994 18.0741V19.5431C6.18981 19.6401 6.17058 19.736 6.1333 19.8255C6.09602 19.915 6.0414 19.9963 5.97266 20.0647C5.90391 20.133 5.82236 20.1872 5.73267 20.224C5.64297 20.2608 5.5469 20.2795 5.44995 20.2791H3.97998C3.88303 20.2795 3.78696 20.2608 3.69727 20.224C3.60757 20.1872 3.52602 20.133 3.45728 20.0647C3.38853 19.9963 3.33391 19.915 3.29663 19.8255C3.25935 19.736 3.24012 19.6401 3.23999 19.5431V18.0741C3.24012 17.9771 3.25936 17.8811 3.29663 17.7915C3.3339 17.702 3.38855 17.6207 3.45728 17.5522C3.526 17.4838 3.60756 17.4295 3.69727 17.3926C3.78697 17.3557 3.88298 17.3369 3.97998 17.3371ZM8.73999 17.3371H10.21C10.307 17.3369 10.4032 17.3557 10.4929 17.3926C10.5826 17.4295 10.6639 17.4838 10.7327 17.5522C10.8014 17.6207 10.856 17.702 10.8933 17.7915C10.9306 17.8811 10.9498 17.9771 10.95 18.0741V19.5431C10.9498 19.6401 10.9306 19.736 10.8933 19.8255C10.856 19.915 10.8014 19.9963 10.7327 20.0647C10.6639 20.133 10.5824 20.1872 10.4927 20.224C10.403 20.2608 10.3069 20.2795 10.21 20.2791H8.73999C8.64304 20.2795 8.54697 20.2608 8.45728 20.224C8.36758 20.1872 8.28603 20.133 8.21729 20.0647C8.14854 19.9963 8.09392 19.915 8.05664 19.8255C8.01936 19.736 8.00013 19.6401 8 19.5431V18.0741C8.00013 17.9771 8.01937 17.8811 8.05664 17.7915C8.09391 17.702 8.14856 17.6207 8.21729 17.5522C8.28601 17.4838 8.36757 17.4295 8.45728 17.3926C8.54698 17.3557 8.64299 17.3369 8.73999 17.3371ZM13.5 17.3371H14.97C15.067 17.3369 15.163 17.3557 15.2527 17.3926C15.3424 17.4295 15.4239 17.4838 15.4927 17.5522C15.5614 17.6207 15.616 17.702 15.6533 17.7915C15.6906 17.8811 15.7098 17.9771 15.71 18.0741V19.5431C15.7098 19.6401 15.6906 19.736 15.6533 19.8255C15.616 19.915 15.5614 19.9963 15.4927 20.0647C15.4239 20.133 15.3424 20.1872 15.2527 20.224C15.163 20.2608 15.0669 20.2795 14.97 20.2791H13.5C13.403 20.2795 13.307 20.2608 13.2173 20.224C13.1276 20.1872 13.046 20.133 12.9773 20.0647C12.9086 19.9963 12.8539 19.915 12.8167 19.8255C12.7794 19.736 12.7601 19.6401 12.76 19.5431V18.0741C12.7601 17.9771 12.7794 17.8811 12.8167 17.7915C12.8539 17.702 12.9086 17.6207 12.9773 17.5522C13.046 17.4838 13.1276 17.4295 13.2173 17.3926C13.307 17.3557 13.403 17.3369 13.5 17.3371ZM18.26 17.3371H19.73C19.8265 17.337 19.9221 17.356 20.0112 17.3931C20.1003 17.4301 20.1811 17.4845 20.249 17.5531C20.3169 17.6216 20.3705 17.703 20.4067 17.7924C20.443 17.8819 20.461 17.9776 20.46 18.0741V19.5431C20.461 19.6396 20.443 19.7352 20.4067 19.8246C20.3705 19.914 20.3169 19.9953 20.249 20.0638C20.1811 20.1322 20.1001 20.1866 20.011 20.2235C19.9219 20.2605 19.8264 20.2794 19.73 20.2791H18.26C18.1631 20.2795 18.067 20.2608 17.9773 20.224C17.8876 20.1872 17.806 20.133 17.7373 20.0647C17.6686 19.9963 17.6139 19.915 17.5767 19.8255C17.5394 19.736 17.5202 19.6401 17.52 19.5431V18.0741C17.5202 17.9771 17.5394 17.8811 17.5767 17.7915C17.6139 17.702 17.6686 17.6207 17.7373 17.5522C17.806 17.4838 17.8876 17.4295 17.9773 17.3926C18.067 17.3557 18.163 17.3369 18.26 17.3371ZM3.97998 12.7371H5.44995C5.5469 12.7367 5.64297 12.7555 5.73267 12.7923C5.82236 12.8291 5.90391 12.8832 5.97266 12.9516C6.0414 13.0199 6.09602 13.1012 6.1333 13.1907C6.17058 13.2802 6.18981 13.3762 6.18994 13.4731V14.9431C6.18981 15.0401 6.17058 15.136 6.1333 15.2255C6.09602 15.315 6.0414 15.3963 5.97266 15.4647C5.90391 15.533 5.82236 15.5872 5.73267 15.624C5.64297 15.6608 5.5469 15.6795 5.44995 15.6791H3.97998C3.88303 15.6795 3.78696 15.6608 3.69727 15.624C3.60757 15.5872 3.52602 15.533 3.45728 15.4647C3.38853 15.3963 3.33391 15.315 3.29663 15.2255C3.25935 15.136 3.24012 15.0401 3.23999 14.9431V13.4731C3.24038 13.3763 3.25996 13.2806 3.29736 13.1913C3.33476 13.102 3.38929 13.021 3.45801 12.9529C3.52672 12.8847 3.60819 12.8307 3.69775 12.7941C3.78732 12.7574 3.8832 12.7387 3.97998 12.7391V12.7371ZM8.73999 12.7371H10.21C10.3069 12.7367 10.403 12.7555 10.4927 12.7923C10.5824 12.8291 10.6639 12.8832 10.7327 12.9516C10.8014 13.0199 10.856 13.1012 10.8933 13.1907C10.9306 13.2802 10.9498 13.3762 10.95 13.4731V14.9431C10.9498 15.0401 10.9306 15.136 10.8933 15.2255C10.856 15.315 10.8014 15.3963 10.7327 15.4647C10.6639 15.533 10.5824 15.5872 10.4927 15.624C10.403 15.6608 10.3069 15.6795 10.21 15.6791H8.73999C8.64304 15.6795 8.54697 15.6608 8.45728 15.624C8.36758 15.5872 8.28603 15.533 8.21729 15.4647C8.14854 15.3963 8.09392 15.315 8.05664 15.2255C8.01936 15.136 8.00013 15.0401 8 14.9431V13.4731C8.00039 13.3763 8.01973 13.2806 8.05713 13.1913C8.09453 13.102 8.1493 13.021 8.21802 12.9529C8.28673 12.8847 8.3682 12.8307 8.45776 12.7941C8.54733 12.7574 8.64321 12.7387 8.73999 12.7391V12.7371ZM13.5 12.7371H14.97C15.0669 12.7367 15.163 12.7555 15.2527 12.7923C15.3424 12.8291 15.4239 12.8832 15.4927 12.9516C15.5614 13.0199 15.616 13.1012 15.6533 13.1907C15.6906 13.2802 15.7098 13.3762 15.71 13.4731V14.9431C15.7098 15.0401 15.6906 15.136 15.6533 15.2255C15.616 15.315 15.5614 15.3963 15.4927 15.4647C15.4239 15.533 15.3424 15.5872 15.2527 15.624C15.163 15.6608 15.0669 15.6795 14.97 15.6791H13.5C13.403 15.6795 13.307 15.6608 13.2173 15.624C13.1276 15.5872 13.046 15.533 12.9773 15.4647C12.9086 15.3963 12.8539 15.315 12.8167 15.2255C12.7794 15.136 12.7601 15.0401 12.76 14.9431V13.4731C12.7604 13.3763 12.7797 13.2806 12.8171 13.1913C12.8545 13.102 12.9093 13.021 12.978 12.9529C13.0467 12.8847 13.1282 12.8307 13.2178 12.7941C13.3073 12.7574 13.4032 12.7387 13.5 12.7391V12.7371ZM18.26 12.7371H19.73C19.8264 12.737 19.922 12.756 20.011 12.793C20.1 12.83 20.1806 12.8843 20.2485 12.9527C20.3164 13.0212 20.3702 13.1024 20.4065 13.1917C20.4428 13.2811 20.4609 13.3767 20.46 13.4731V14.9431C20.461 15.0395 20.443 15.1352 20.4067 15.2246C20.3705 15.314 20.3169 15.3953 20.249 15.4638C20.1811 15.5323 20.1001 15.5866 20.011 15.6235C19.9219 15.6605 19.8264 15.6794 19.73 15.6791H18.26C18.1631 15.6795 18.067 15.6608 17.9773 15.624C17.8876 15.5872 17.806 15.533 17.7373 15.4647C17.6686 15.3963 17.6139 15.315 17.5767 15.2255C17.5394 15.136 17.5202 15.0401 17.52 14.9431V13.4731C17.5204 13.3763 17.5397 13.2806 17.5771 13.1913C17.6145 13.102 17.6693 13.021 17.738 12.9529C17.8068 12.8847 17.8882 12.8307 17.9778 12.7941C18.0674 12.7574 18.1632 12.7387 18.26 12.7391V12.7371Z" fill="black" stroke="white"/>
</svg>
