<svg width="21" height="20" viewBox="0 0 21 20" fill="none" xmlns="http://www.w3.org/2000/svg">
<path fill-rule="evenodd" clip-rule="evenodd" d="M2.92993 8.57098C3.32078 8.57231 3.69508 8.72868 3.9707 9.0058C4.24632 9.28292 4.4007 9.65813 4.3999 10.049V17.587C4.3999 17.7807 4.36197 17.9725 4.28784 18.1514C4.21372 18.3304 4.10498 18.493 3.96802 18.6299C3.83105 18.7669 3.66846 18.8756 3.4895 18.9497C3.31055 19.0238 3.11875 19.062 2.92505 19.062C2.73135 19.062 2.53955 19.0238 2.3606 18.9497C2.18164 18.8756 2.01905 18.7669 1.88208 18.6299C1.74511 18.493 1.63638 18.3304 1.56226 18.1514C1.48813 17.9725 1.44995 17.7807 1.44995 17.587V10.049C1.44995 9.85472 1.48834 9.66236 1.56274 9.48291C1.63715 9.30346 1.74609 9.14042 1.88354 9.00314C2.021 8.86587 2.18422 8.75705 2.36377 8.68289C2.54332 8.60873 2.73567 8.57072 2.92993 8.57098ZM8.06006 0.55298C8.25432 0.552717 8.44667 0.590729 8.62622 0.664888C8.80577 0.739047 8.96899 0.847899 9.10645 0.98517C9.2439 1.12244 9.35284 1.28546 9.42725 1.46491C9.50165 1.64436 9.54004 1.83671 9.54004 2.03098V17.55C9.54004 17.9425 9.384 18.3189 9.10645 18.5965C8.82889 18.8741 8.45258 19.03 8.06006 19.03C7.66754 19.03 7.29098 18.8741 7.01343 18.5965C6.73587 18.3189 6.58008 17.9425 6.58008 17.55V2.03098C6.58166 1.63913 6.73811 1.2638 7.01538 0.986909C7.29265 0.710016 7.66821 0.554033 8.06006 0.55298ZM13.27 6.05298C13.4643 6.05272 13.6566 6.09073 13.8362 6.16489C14.0157 6.23905 14.1789 6.3479 14.3164 6.48517C14.4539 6.62244 14.5628 6.78546 14.6372 6.96491C14.7116 7.14436 14.75 7.33671 14.75 7.53098V17.55C14.75 17.9425 14.594 18.3189 14.3164 18.5965C14.0389 18.8741 13.6625 19.03 13.27 19.03C12.8775 19.03 12.5009 18.8741 12.2234 18.5965C11.9458 18.3189 11.79 17.9425 11.79 17.55V7.53598C11.7916 7.14413 11.9481 6.76881 12.2253 6.49191C12.5026 6.21502 12.8782 6.05904 13.27 6.05798V6.05298ZM18.4399 3.50397C18.6342 3.50371 18.8266 3.54175 19.0061 3.61591C19.1857 3.69007 19.3489 3.79889 19.4863 3.93616C19.6238 4.07343 19.733 4.23645 19.8074 4.41589C19.8818 4.59534 19.9199 4.7877 19.9199 4.98197V17.55C19.9199 17.7437 19.8817 17.9355 19.8076 18.1144C19.7335 18.2934 19.625 18.456 19.488 18.593C19.3511 18.7299 19.1885 18.8386 19.0095 18.9127C18.8306 18.9868 18.6388 19.025 18.4451 19.025C18.2514 19.025 18.0596 18.9868 17.8806 18.9127C17.7017 18.8386 17.5391 18.7299 17.4021 18.593C17.2651 18.456 17.1564 18.2934 17.0823 18.1144C17.0082 17.9355 16.97 17.7437 16.97 17.55V4.98697C16.9692 4.59612 17.1235 4.22094 17.3992 3.94382C17.6748 3.6667 18.0491 3.5103 18.4399 3.50897V3.50397Z" fill="black" stroke="white"/>
</svg>
