<svg width="24" height="23" viewBox="0 0 24 23" fill="none" xmlns="http://www.w3.org/2000/svg">
<path fill-rule="evenodd" clip-rule="evenodd" d="M3.50001 0.843994H20.4199C21.0226 0.845319 21.6003 1.08573 22.0259 1.51245C22.4515 1.93917 22.6902 2.51732 22.69 3.12V14.2C22.69 14.8025 22.451 15.3804 22.0254 15.8069C21.5998 16.2334 21.0224 16.4737 20.4199 16.475H3.50001C3.20145 16.4751 2.90569 16.4163 2.62989 16.302C2.3541 16.1877 2.10371 16.02 1.89283 15.8087C1.68195 15.5973 1.51487 15.3464 1.40113 15.0704C1.2874 14.7943 1.2292 14.4986 1.22999 14.2V3.12C1.22907 2.82135 1.28721 2.52546 1.40089 2.2493C1.51457 1.97314 1.68145 1.72213 1.89234 1.51068C2.10324 1.29923 2.35403 1.1315 2.62989 1.01709C2.90575 0.902684 3.20137 0.843861 3.50001 0.843994ZM4.10011 16.472H13.1599L4.12013 22.311H4.10011V16.472Z" fill="black" stroke="white"/>
</svg>
