<svg xmlns="http://www.w3.org/2000/svg" width="700" height="600" viewBox="0 0 700 600">
  <defs>
    <style>
      .cls-1 {
        fill: #7800ff;
      }

      .cls-1, .cls-2, .cls-3 {
        fill-rule: evenodd;
      }

      .cls-2 {
        fill: #fff;
        stroke: #fff;
        stroke-width: 1px;
      }

      .cls-3 {
        fill: blue;
      }
    </style>
  </defs>
  <path id="Эллипс_1" data-name="Эллипс 1" class="cls-1" d="M459.125,225h1.813c101.651,0,184.055,82.4,184.055,184.056V557H278.007V406.118A181.118,181.118,0,0,1,459.125,225ZM462.06,56.879A84.06,84.06,0,1,1,378,140.939,84.06,84.06,0,0,1,462.06,56.879Z"/>
  <path id="Эллипс_1-2" data-name="Эллипс 1" class="cls-2" d="M256.882,216.136h11.611A184.055,184.055,0,0,1,452.548,400.191V557H75.764V397.254A181.118,181.118,0,0,1,256.882,216.136Zm7.849-172.61a86.3,86.3,0,1,1-86.3,86.3A86.3,86.3,0,0,1,264.731,43.526Z"/>
  <path id="Эллипс_1-3" data-name="Эллипс 1" class="cls-3" d="M236.125,225h1.813c101.651,0,184.055,82.4,184.055,184.056V557H55.007V406.118A181.118,181.118,0,0,1,236.125,225ZM239.06,56.879A84.06,84.06,0,1,1,155,140.939,84.06,84.06,0,0,1,239.06,56.879Z"/>
</svg>
