<svg xmlns="http://www.w3.org/2000/svg" width="1481" height="55" viewBox="0 0 1481 55">
  <defs>
    <style>
      .cls-1, .cls-2 {
        fill: blue;
      }

      .cls-1 {
        fill-rule: evenodd;
      }
    </style>
  </defs>
  <g id="ro_long_bl">
    <g id="Группа_2" data-name="Группа 2">
      <path id="Прямоугольник_5_копия" data-name="Прямоугольник 5 копия" class="cls-1" d="M0.037,53.96L0,1.085l14.669,0V53.96H0.037ZM77.14,54l-6.823-9.47H80.951a25.549,25.549,0,0,0,4.637-.322c2.251,3.049,7.119,9.785,7.119,9.785Zm23.4-31.15c0-.006-3.706,0-7.516,0H85.668c0,6.381-2.956,6.634-7.182,6.727-11.734-.024-18.625-0.037-27.758-0.037V44.53c0.759,0.011,26.929,0,30.223,0a25.469,25.469,0,0,0,4.637-.322C91.421,43.2,100.54,39,100.54,22.849Zm0,0c0,0.006-3.706,0-7.516,0H85.673c0-6.381-2.976-6.677-7.2-6.77-11.734.024-18.611,0-27.744,0V1.088c0.759-.011,26.433-0.081,29.023-0.081C81.3,1.007,100.545-.052,100.545,22.849Zm5.032,5.884c0-.006,4.162,0,7.356,0h7.515c0,6.108,2.915,10.092,7.138,10.185,11.73-.024,19.072-0.029,28.2-0.029V53.96c-0.759.011-26.873-.006-29.463-0.006C123.953,53.953,105.577,54.47,105.577,28.733Zm-90.908.806H50.728V44.53H14.669V29.539Zm0-28.451H50.728V16.079H14.669V1.088ZM206,28.733c0-.006-3.668,0-7.435,0h-7.436c0,6.1-2.907,10.063-7.132,10.157-11.734-.024-19.074,0-28.208,0V53.96c0.759,0.011,26.879-.042,29.47-0.042C187.631,53.918,206,54.457,206,28.733Zm0-2.337c0,0.006-3.668,0-7.435,0h-7.436c0-6.1-2.907-10.19-7.132-10.282-11.734.024-19.079,0-28.212,0,0-.361,0-14.719,0-15.025,0.759-.011,26.879,0,29.47,0C187.631,1.084,206,.671,206,26.4Zm-14.871,0H206v2.337H191.128V26.4Zm-85.551-.081c0,0.006,3.67,0,7.436,0h7.435c0-6.108,2.915-10.092,7.138-10.185,11.73,0.024,19.072,0,28.2,0,0-.361,0-14.736,0-15.042-0.759-.011-26.873.006-29.463,0.006C123.953,1.094,105.577.578,105.577,26.315Zm14.871,2.418H105.577V26.315h14.871v2.418Z"/>
      <path id="Прямоугольник_5_копия-2" data-name="Прямоугольник 5 копия" class="cls-1" d="M623,28.733c0-.006-3.669,0-7.435,0h-7.436c0,6.1-2.907,10.063-7.132,10.157-11.734-.024-19.074,0-28.208,0V53.96c0.759,0.011,26.879-.042,29.469-0.042C604.631,53.918,623,54.457,623,28.733ZM608.128,26.4H623v2.337H608.128V26.4Zm-85.551-.081c0,0.006,3.67,0,7.435,0h7.436c0-6.108,2.915-10.092,7.138-10.185,11.73,0.024,19.072,0,28.2,0,0-.361,0-14.736,0-15.042-0.759-.011-26.873.006-29.463,0.006C540.953,1.094,522.577.578,522.577,26.315Zm0,2.418c0-.006,4.162,0,7.356,0h7.515c0,6.108,2.915,10.092,7.138,10.185,11.73-.024,19.072-0.029,28.2-0.029V53.96c-0.759.011-26.873-.006-29.463-0.006C540.953,53.953,522.577,54.47,522.577,28.733Zm14.871,0H522.577V26.315h14.871v2.418Zm78.116,0h0ZM623,26.4c0,0.006-3.669,0-7.435,0h-7.436c0-6.1-2.907-10.19-7.132-10.282-11.734.024-19.079,0-28.212,0,0-.361,0-14.719,0-15.025,0.759-.011,26.879,0,29.469,0C604.631,1.084,623,.671,623,26.4Zm0,2.337h0Z"/>
      <rect id="Прямоугольник_1" data-name="Прямоугольник 1" class="cls-2" x="211" y="1" width="100" height="15"/>
      <path id="Прямоугольник_1_копия_2" data-name="Прямоугольник 1 копия 2" class="cls-1" d="M211,38L305,2l6,14L216,53Z"/>
      <path id="Прямоугольник_1_копия" data-name="Прямоугольник 1 копия" class="cls-1" d="M310,54H211V39h99V54Z"/>
      <path id="Прямоугольник_2" data-name="Прямоугольник 2" class="cls-1" d="M336,1V54H318V1h18Z"/>
      <path id="Прямоугольник_2_копия_2" data-name="Прямоугольник 2 копия 2" class="cls-1" d="M417,1V54H400V1h17Z"/>
      <path id="Прямоугольник_2_копия_3" data-name="Прямоугольник 2 копия 3" class="cls-1" d="M441,1V54H424V1h17Z"/>
      <path id="Прямоугольник_2_копия" data-name="Прямоугольник 2 копия" class="cls-1" d="M417,35H318V20h99V35Z"/>
      <path id="Прямоугольник_2_копия_5" data-name="Прямоугольник 2 копия 5" class="cls-1" d="M416,35H319V20h97V35Z"/>
      <path id="Прямоугольник_1_копия_3" data-name="Прямоугольник 1 копия 3" class="cls-1" d="M637.5,1l41.618,41.817L669.2,52.6,618,1h19.5Z"/>
      <path id="Прямоугольник_1_копия_3-2" data-name="Прямоугольник 1 копия 3" class="cls-1" d="M722,1L670,53,659.583,42.749,701.571,1H722Z"/>
      <path id="Прямоугольник_1_копия_4" data-name="Прямоугольник 1 копия 4" class="cls-1" d="M524,1L440.7,54,430.015,43.552,497.273,1H524Z"/>
      <path id="Прямоугольник_1_копия_5" data-name="Прямоугольник 1 копия 5" class="cls-1" d="M524,53L470.7,19,460.015,29.448,497.273,53H524Z"/>
      <path id="Прямоугольник_1_копия_8" data-name="Прямоугольник 1 копия 8" class="cls-1" d="M935.81,1l38.913,31.994h17.512c0.009,0,0-4,0-4L958.185,1H935.81Z"/>
      <path id="Прямоугольник_1_копия_9" data-name="Прямоугольник 1 копия 9" class="cls-1" d="M1031.15,1L992.235,32.994H974.723c-0.01,0,0-4,0-4L1008.77,1h22.38Z"/>
      <path id="Прямоугольник_1_копия_3-3" data-name="Прямоугольник 1 копия 3" class="cls-1" d="M1136.21,1L1086,53l-9-11,39.34-41h19.87Z"/>
      <path id="Прямоугольник_5_копия-3" data-name="Прямоугольник 5 копия" class="cls-1" d="M856.709,27.728c0-.006-3.569,0-7.234,0h-7.234c0,6.1-2.827,10.062-6.938,10.155-11.415-.024-18.556,0-27.441,0V52.95c0.738,0.011,26.149-.041,28.669-0.041C838.84,52.909,856.709,53.448,856.709,27.728Zm0-2.337c0,0.006-3.569,0-7.234,0h-7.234c0-6.1-2.827-10.188-6.938-10.281-11.415.024-18.56,0-27.446,0,0-.361,0-14.716,0-15.022,0.738-.011,26.149,0,28.669,0C838.84,0.084,856.709-.329,856.709,25.391Zm-14.468,0h14.468v2.337H842.241V25.391Zm-75.993-.081h0Zm7.233,2.418h0Zm-14.467-2.418c0,0.006,3.571,0,7.234,0h7.233c0-6.107,2.836-10.09,6.945-10.183,11.411,0.024,18.553,0,27.435,0,0-.361,0-14.734,0-15.039-0.739-.011-26.144.006-28.663,0.006C776.891,0.094,759.014-.422,759.014,25.311Zm0,2.418c0-.006,4.049,0,7.156,0h7.311c0,6.107,2.836,10.09,6.945,10.183,11.411-.024,18.554-0.029,27.436-0.029V52.95c-0.739.011-26.144-.006-28.663-0.006C776.891,52.944,759.014,53.46,759.014,27.728Zm14.467,0H759.014V25.311h14.467v2.418Z"/>
      <path id="Прямоугольник_2-2" data-name="Прямоугольник 2" class="cls-1" d="M881.031,0v52.99H863.519V0h17.512Z"/>
      <path id="Прямоугольник_2_копия_6" data-name="Прямоугольник 2 копия 6" class="cls-1" d="M1053.03,1v52.99h-17.51V1h17.51Z"/>
      <path id="Прямоугольник_2_копия_7" data-name="Прямоугольник 2 копия 7" class="cls-1" d="M1135.03,1v52.99h-17.51V1h17.51Z"/>
      <path id="Прямоугольник_2_копия_4" data-name="Прямоугольник 2 копия 4" class="cls-1" d="M992.235,32.994v21H974.724v-21h17.511Z"/>
      <path id="Прямоугольник_2_копия_5-2" data-name="Прямоугольник 2 копия 5" class="cls-1" d="M959.831,52.991H863.519v-15h96.312v15Z"/>
      <path id="Прямоугольник_2_копия-2" data-name="Прямоугольник 2 копия" class="cls-1" d="M1352.58,46.992h-53.5v-14h53.5v14Z"/>
      <path id="Прямоугольник_2-3" data-name="Прямоугольник 2" class="cls-1" d="M1267.95,1v52.99h-17.52V1h17.52Z"/>
      <path id="Прямоугольник_1_копия_3-4" data-name="Прямоугольник 1 копия 3" class="cls-1" d="M1054.66,1L1093,43l-7.85,10L1036.01,1h18.65Z"/>
      <path id="Прямоугольник_5_копия-4" data-name="Прямоугольник 5 копия" class="cls-1" d="M1144.43,53.95l-0.04-52.865,14.28,0V53.95h-14.24Zm68.37-9.428h10.35a24.184,24.184,0,0,0,4.51-.322m14.54-21.354c0-.006-3.6,0-7.31,0h-7.15c0,6.38-2.88,6.632-6.99,6.725-11.42-.024-18.12-0.037-27-0.037V44.522c0.73,0.011,26.19,0,29.4,0a24.112,24.112,0,0,0,4.51-.322C1233.33,43.188,1242.2,39,1242.2,22.845Zm0.01,0c0,0.006-3.61,0-7.31,0h-7.16c0-6.38-2.89-6.676-7-6.769-11.42.024-18.11,0-26.99,0V1.088c0.73-.011,25.71-0.081,28.23-0.081C1223.49,1.007,1242.21-.052,1242.21,22.845Zm-83.54,6.688h35.08V44.522h-35.08V29.534Zm0-28.446h35.08V16.076h-35.08V1.088Z"/>
      <path id="Прямоугольник_1_копия_3-5" data-name="Прямоугольник 1 копия 3" class="cls-1" d="M1357.93,53.991l-40.49-41.81,9.65-9.781,49.81,51.591h-18.97Z"/>
      <path id="Прямоугольник_1_копия_3-6" data-name="Прямоугольник 1 копия 3" class="cls-1" d="M1275.73,53.991L1326.32,2l10.13,10.249L1295.6,53.991h-19.87Z"/>
      <path id="Прямоугольник_5_копия-5" data-name="Прямоугольник 5 копия" class="cls-1" d="M1481,28.728c0-.006-3.57,0-7.24,0h-7.23c0,6.1-2.83,10.062-6.94,10.155-11.41-.024-18.35.111-27.23,0.111,0,0.361-.21,14.651-0.21,14.957,0.74,0.011,26.15-.042,28.67-0.042C1463.13,53.909,1481,54.448,1481,28.728Zm0-2.337c0,0.006-3.57,0-7.24,0h-7.23c0-6.1-2.83-10.188-6.94-10.281-11.41.024-18.35-.113-27.23-0.113V1c0.73-.011,25.94.084,28.46,0.084C1463.13,1.084,1481,.671,1481,26.391Zm-14.47,0H1481v2.337h-14.47V26.391Zm-82.82-.4c0,0.006,3.15,0,6.81,0h7.79V16c11.41,0.024,25.16,0,34.05,0V1c-0.74-.011-44.53,0-48.65,0V26Zm0,3c0-.006,3.71,0,6.81,0h7.79c0,6.106-.17,5.974,0,10h34.05c0,0.361-.21,14.651-0.21,14.957-25.33,0-42.45.04-48.44,0.04v-25Z"/>
      <path id="Прямоугольник_4" data-name="Прямоугольник 4" class="cls-1" d="M1383.99,1.025h15v52.99h-15V1.025Z"/>
    </g>
  </g>
</svg>
