<svg xmlns="http://www.w3.org/2000/svg" width="1481" height="55" viewBox="0 0 1481 55">
  <defs>
    <style>
      .cls-1, .cls-2 {
        fill: #fff;
      }

      .cls-1 {
        fill-rule: evenodd;
      }
    </style>
  </defs>
  <g id="ro_long_wh">
    <g id="Группа_2" data-name="Группа 2">
      <path id="Прямоугольник_5_копия" data-name="Прямоугольник 5 копия" class="cls-1" d="M0.037,375.959L0,323.085l14.669,0v52.871H0.037ZM77.14,376l-6.823-9.469H80.951a25.52,25.52,0,0,0,4.637-.323c2.251,3.05,7.119,9.785,7.119,9.785Zm23.4-31.15c0-.006-3.706,0-7.516,0H85.668c0,6.381-2.956,6.634-7.182,6.727-11.734-.025-18.625-0.037-27.758-0.037V366.53c0.759,0.011,26.929,0,30.223,0a25.421,25.421,0,0,0,4.637-.323C91.421,365.2,100.54,361,100.54,344.849Zm0,0c0,0.006-3.706,0-7.516,0H85.673c0-6.381-2.976-6.677-7.2-6.77-11.734.024-18.611,0-27.744,0V323.088c0.759-.011,26.433-0.081,29.023-0.081C81.3,323.007,100.545,321.948,100.545,344.849Zm5.032,5.884c0-.007,4.162,0,7.356,0h7.515c0,6.107,2.915,10.091,7.138,10.184,11.73-.024,19.072-0.029,28.2-0.029v15.071c-0.759.011-26.873-.006-29.463-0.006C123.953,375.953,105.577,376.47,105.577,350.733Zm-90.908.806H50.728V366.53H14.669V351.539Zm0-28.451H50.728v14.991H14.669V323.088ZM206,350.733c0-.007-3.668,0-7.435,0h-7.436c0,6.1-2.907,10.063-7.132,10.156-11.734-.024-19.074,0-28.208,0v15.071c0.759,0.011,26.879-.041,29.47-0.041C187.631,375.918,206,376.457,206,350.733Zm0-2.338c0,0.006-3.668,0-7.435,0h-7.436c0-6.1-2.907-10.189-7.132-10.282-11.734.024-19.079,0-28.212,0,0-.361,0-14.719,0-15.025,0.759-.011,26.879,0,29.47,0C187.631,323.084,206,322.671,206,348.4Zm-14.871,0H206v2.338H191.128V348.4Zm-85.551-.08c0,0.006,3.67,0,7.436,0h7.435c0-6.108,2.915-10.092,7.138-10.185,11.73,0.024,19.072,0,28.2,0,0-.361,0-14.736,0-15.042-0.759-.011-26.873.006-29.463,0.006C123.953,323.094,105.577,322.578,105.577,348.315Zm14.871,2.418H105.577v-2.418h14.871v2.418Z" transform="translate(0 -322)"/>
      <path id="Прямоугольник_5_копия-2" data-name="Прямоугольник 5 копия" class="cls-1" d="M623,350.733c0-.007-3.669,0-7.435,0h-7.436c0,6.1-2.907,10.063-7.132,10.156-11.734-.024-19.074,0-28.208,0v15.071c0.759,0.011,26.879-.041,29.469-0.041C604.631,375.918,623,376.457,623,350.733ZM608.128,348.4H623v2.338H608.128V348.4Zm-85.551-.08c0,0.006,3.67,0,7.435,0h7.436c0-6.108,2.915-10.092,7.138-10.185,11.73,0.024,19.072,0,28.2,0,0-.361,0-14.736,0-15.042-0.759-.011-26.873.006-29.463,0.006C540.953,323.094,522.577,322.578,522.577,348.315Zm0,2.418c0-.007,4.162,0,7.356,0h7.515c0,6.107,2.915,10.091,7.138,10.184,11.73-.024,19.072-0.029,28.2-0.029v15.071c-0.759.011-26.873-.006-29.463-0.006C540.953,375.953,522.577,376.47,522.577,350.733Zm14.871,0H522.577v-2.418h14.871v2.418Zm78.116,0h0ZM623,348.4c0,0.006-3.669,0-7.435,0h-7.436c0-6.1-2.907-10.189-7.132-10.282-11.734.024-19.079,0-28.212,0,0-.361,0-14.719,0-15.025,0.759-.011,26.879,0,29.469,0C604.631,323.084,623,322.671,623,348.4Zm0,2.338h0Z" transform="translate(0 -322)"/>
      <rect id="Прямоугольник_1" data-name="Прямоугольник 1" class="cls-2" x="211" y="1" width="100" height="15"/>
      <path id="Прямоугольник_1_копия_2" data-name="Прямоугольник 1 копия 2" class="cls-1" d="M211,360l94-36,6,14-95,37Z" transform="translate(0 -322)"/>
      <path id="Прямоугольник_1_копия" data-name="Прямоугольник 1 копия" class="cls-1" d="M310,376H211V361h99v15Z" transform="translate(0 -322)"/>
      <path id="Прямоугольник_2" data-name="Прямоугольник 2" class="cls-1" d="M336,323v53H318V323h18Z" transform="translate(0 -322)"/>
      <path id="Прямоугольник_2_копия_2" data-name="Прямоугольник 2 копия 2" class="cls-1" d="M417,323v53H400V323h17Z" transform="translate(0 -322)"/>
      <path id="Прямоугольник_2_копия_3" data-name="Прямоугольник 2 копия 3" class="cls-1" d="M441,323v53H424V323h17Z" transform="translate(0 -322)"/>
      <path id="Прямоугольник_2_копия" data-name="Прямоугольник 2 копия" class="cls-1" d="M417,357H318V342h99v15Z" transform="translate(0 -322)"/>
      <path id="Прямоугольник_2_копия_5" data-name="Прямоугольник 2 копия 5" class="cls-1" d="M412,357H324V342h88v15Z" transform="translate(0 -322)"/>
      <path id="Прямоугольник_1_копия_3" data-name="Прямоугольник 1 копия 3" class="cls-1" d="M637.5,323l41.618,41.817L669.2,374.6,618,323h19.5Z" transform="translate(0 -322)"/>
      <path id="Прямоугольник_1_копия_3-2" data-name="Прямоугольник 1 копия 3" class="cls-1" d="M722,323l-52,52-10.417-10.251L701.571,323H722Z" transform="translate(0 -322)"/>
      <path id="Прямоугольник_1_копия_4" data-name="Прямоугольник 1 копия 4" class="cls-1" d="M524,323l-83.3,53-10.687-10.448L497.273,323H524Z" transform="translate(0 -322)"/>
      <path id="Прямоугольник_1_копия_5" data-name="Прямоугольник 1 копия 5" class="cls-1" d="M524,375l-53.3-34-10.687,10.448L497.273,375H524Z" transform="translate(0 -322)"/>
      <path id="Прямоугольник_1_копия_8" data-name="Прямоугольник 1 копия 8" class="cls-1" d="M935.81,323l38.913,31.994h17.512c0.009,0,0-4,0-4l-34.05-28H935.81Z" transform="translate(0 -322)"/>
      <path id="Прямоугольник_1_копия_9" data-name="Прямоугольник 1 копия 9" class="cls-1" d="M1031.15,323l-38.915,31.994H974.723c-0.01,0,0-4,0-4l34.047-28h22.38Z" transform="translate(0 -322)"/>
      <path id="Прямоугольник_1_копия_3-3" data-name="Прямоугольник 1 копия 3" class="cls-1" d="M1136.21,323l-50.58,51.991L1077,364l39.34-41h19.87Z" transform="translate(0 -322)"/>
      <path id="Прямоугольник_5_копия-3" data-name="Прямоугольник 5 копия" class="cls-1" d="M856.709,349.728c0-.006-3.569,0-7.234,0h-7.234c0,6.1-2.827,10.062-6.938,10.155-11.415-.025-18.556,0-27.441,0V374.95c0.738,0.011,26.149-.041,28.669-0.041C838.84,374.909,856.709,375.448,856.709,349.728Zm0-2.337c0,0.006-3.569,0-7.234,0h-7.234c0-6.1-2.827-10.188-6.938-10.281-11.415.025-18.56,0-27.446,0,0-.361,0-14.716,0-15.022,0.738-.011,26.149,0,28.669,0C838.84,322.084,856.709,321.671,856.709,347.391Zm-14.468,0h14.468v2.337H842.241v-2.337Zm-75.993-.081h0Zm7.233,2.418h0Zm-14.467-2.418c0,0.007,3.571,0,7.234,0h7.233c0-6.106,2.836-10.089,6.945-10.182,11.411,0.024,18.553,0,27.435,0,0-.362,0-14.734,0-15.04-0.739-.011-26.144.006-28.663,0.006C776.891,322.094,759.014,321.578,759.014,347.31Zm0,2.418c0-.006,4.049,0,7.156,0h7.311c0,6.107,2.836,10.09,6.945,10.183,11.411-.025,18.554-0.03,27.436-0.03V374.95c-0.739.011-26.144-.006-28.663-0.006C776.891,374.944,759.014,375.46,759.014,349.728Zm14.467,0H759.014V347.31h14.467v2.418Z" transform="translate(0 -322)"/>
      <path id="Прямоугольник_2-2" data-name="Прямоугольник 2" class="cls-1" d="M881.031,322v52.991H863.519V322h17.512Z" transform="translate(0 -322)"/>
      <path id="Прямоугольник_2_копия_6" data-name="Прямоугольник 2 копия 6" class="cls-1" d="M1053.03,323v52.991h-17.51V323h17.51Z" transform="translate(0 -322)"/>
      <path id="Прямоугольник_2_копия_7" data-name="Прямоугольник 2 копия 7" class="cls-1" d="M1135.03,323v52.991h-17.51V323h17.51Z" transform="translate(0 -322)"/>
      <path id="Прямоугольник_2_копия_4" data-name="Прямоугольник 2 копия 4" class="cls-1" d="M992.235,354.994v21H974.724v-21h17.511Z" transform="translate(0 -322)"/>
      <path id="Прямоугольник_2_копия_5-2" data-name="Прямоугольник 2 копия 5" class="cls-1" d="M959.831,374.991H863.519v-15h96.312v15Z" transform="translate(0 -322)"/>
      <path id="Прямоугольник_2_копия-2" data-name="Прямоугольник 2 копия" class="cls-1" d="M1352.58,368.992h-53.5V355h53.5v14Z" transform="translate(0 -322)"/>
      <path id="Прямоугольник_2-3" data-name="Прямоугольник 2" class="cls-1" d="M1267.95,323v52.991h-17.52V323h17.52Z" transform="translate(0 -322)"/>
      <path id="Прямоугольник_1_копия_3-4" data-name="Прямоугольник 1 копия 3" class="cls-1" d="M1054,323l40,41-8.17,10.591L1036.01,323H1054Z" transform="translate(0 -322)"/>
      <path id="Прямоугольник_5_копия-4" data-name="Прямоугольник 5 копия" class="cls-1" d="M1144.43,375.95l-0.04-52.865,14.28,0V375.95h-14.24Zm68.37-9.428h10.35a24.208,24.208,0,0,0,4.51-.322m14.54-21.355c0-.006-3.6,0-7.31,0h-7.15c0,6.381-2.88,6.633-6.99,6.726-11.42-.025-18.12-0.037-27-0.037v14.988c0.73,0.011,26.19,0,29.4,0a24.118,24.118,0,0,0,4.51-.322C1233.33,365.188,1242.2,361,1242.2,344.845Zm0.01,0c0,0.006-3.61,0-7.31,0h-7.16c0-6.38-2.89-6.676-7-6.769-11.42.025-18.11,0-26.99,0V323.088c0.73-.011,25.71-0.081,28.23-0.081C1223.49,323.007,1242.21,321.948,1242.21,344.845Zm-83.54,6.689h35.08v14.988h-35.08V351.534Zm0-28.446h35.08v14.988h-35.08V323.088Z" transform="translate(0 -322)"/>
      <path id="Прямоугольник_1_копия_3-5" data-name="Прямоугольник 1 копия 3" class="cls-1" d="M1357.93,375.991l-40.49-41.81,9.65-9.781,49.81,51.591h-18.97Z" transform="translate(0 -322)"/>
      <path id="Прямоугольник_1_копия_3-6" data-name="Прямоугольник 1 копия 3" class="cls-1" d="M1275.73,375.991L1326.32,324l10.13,10.249-40.85,41.742h-19.87Z" transform="translate(0 -322)"/>
      <path id="Прямоугольник_5_копия-5" data-name="Прямоугольник 5 копия" class="cls-1" d="M1481,350.728c0-.006-3.57,0-7.24,0h-7.23c0,6.1-2.83,10.062-6.94,10.155-11.41-.025-18.35.11-27.23,0.11,0,0.361-.21,14.651-0.21,14.957,0.74,0.011,26.15-.041,28.67-0.041C1463.13,375.909,1481,376.448,1481,350.728Zm0-2.337c0,0.006-3.57,0-7.24,0h-7.23c0-6.1-2.83-10.188-6.94-10.281-11.41.025-18.35-.113-27.23-0.113V323c0.73-.011,25.94.084,28.46,0.084C1463.13,323.084,1481,322.671,1481,348.391Zm-14.47,0H1481v2.337h-14.47v-2.337Zm-82.82-.4c0,0.007,3.15,0,6.81,0h7.79V338c11.41,0.025,25.16,0,34.05,0V323c-0.74-.011-44.53,0-48.65,0v25Zm0,3c0-.006,3.71,0,6.81,0h7.79c0,6.106-.17,5.974,0,10h34.05c0,0.361-.21,14.651-0.21,14.957-25.33,0-42.45.04-48.44,0.04V351Z" transform="translate(0 -322)"/>
      <path id="Прямоугольник_4" data-name="Прямоугольник 4" class="cls-1" d="M1383.99,323.025h15v52.99h-15v-52.99Z" transform="translate(0 -322)"/>
    </g>
  </g>
</svg>
