<svg id="Группа_1_копия" data-name="Группа 1 копия" xmlns="http://www.w3.org/2000/svg" width="3000" height="3000" viewBox="0 0 3000 3000">
  <defs>
    <style>
      .cls-1 {
        fill: blue;
        fill-rule: evenodd;
      }
    </style>
  </defs>
  <path id="Прямоугольник_5_копия" data-name="Прямоугольник 5 копия" class="cls-1" d="M212,1827l-0.468-656.04L395,1171v656H212Zm964.34,0.5L1091,1710h133c8,0,31.22.6,58-4,28.15,37.84,89.03,121.41,89.03,121.41ZM2788,1514c0-.08-45.89,0-93,0h-93c0,75.74-36.36,124.86-89.2,126.02-146.76-.31-238.57-0.02-352.8-0.02v187c9.5,0.14,336.18-.52,368.58-0.52C2558.26,1826.48,2788,1833.18,2788,1514Zm0-29c0,0.08-45.89,0-93,0h-93c0-75.74-36.36-126.43-89.2-127.58-146.76.3-238.62,0-352.85,0,0-4.48.05-182.63,0.05-186.42,9.5-.14,336.18-0.05,368.58-0.05C2558.26,1170.95,2788,1165.82,2788,1485Zm-1319-44c0-.08-46.35,0-94,0h-92c0,79.18-36.98,82.31-89.82,83.46-146.76-.3-232.947-0.46-347.18-0.46v186c9.5,0.14,336.8,0,378,0,8.01,0,31.22.61,58-4C1354.95,1693.45,1469,1641.43,1469,1441Zm0.06,0c0,0.08-46.34.01-94,.01-30.55,0-60.8-.01-92-0.01,0-79.18-37.22-82.85-90.06-84-146.76.3-232.767,0-347,0V1171c9.5-.14,330.6-1,363-1C1228.4,1170,1469.06,1156.86,1469.06,1441ZM2602,1485h186v29H2602v-29Zm-1070-1c0,0.08,45.91,0,93,0h93c0-75.78,36.45-125.21,89.28-126.37,146.7,0.31,238.52,0,352.71,0,0-4.48.01-182.83,0.01-186.63-9.49-.14-336.11.08-368.49,0.08C1761.83,1171.08,1532,1164.67,1532,1484Zm0,30c0-.08,52.05,0,92,0h94c0,75.78,36.45,125.21,89.28,126.37,146.7-.31,238.53-0.37,352.72-0.37v187c-9.49.14-336.11-.08-368.49-0.08C1761.83,1826.92,1532,1833.33,1532,1514Zm186,0H1532v-30h186v30ZM395,1524H846v186H395V1524Zm0-353H846v186H395V1171Z"/>
</svg>
