<svg xmlns="http://www.w3.org/2000/svg" width="723" height="131" viewBox="0 0 723 131">
  <defs>
    <style>
      .cls-1, .cls-2 {
        fill: #fff;
      }

      .cls-1 {
        fill-rule: evenodd;
      }
    </style>
  </defs>
  <g id="ro_stack_wh">
    <g id="Группа_2" data-name="Группа 2">
      <path id="Прямоугольник_5_копия" data-name="Прямоугольник 5 копия" class="cls-1" d="M1.037,513.959L1,461.085l14.669,0v52.871H1.037ZM78.14,514l-6.823-9.469H81.951a25.52,25.52,0,0,0,4.637-.323c2.251,3.05,7.119,9.785,7.119,9.785Zm23.4-31.15c0-.006-3.706,0-7.516,0H86.668c0,6.381-2.956,6.634-7.182,6.727-11.734-.025-18.625-0.037-27.758-0.037V504.53c0.759,0.011,26.929,0,30.223,0a25.421,25.421,0,0,0,4.637-.323C92.421,503.2,101.54,499,101.54,482.849Zm0,0c0,0.006-3.706,0-7.516,0H86.673c0-6.381-2.976-6.677-7.2-6.77-11.734.024-18.611,0-27.744,0V461.088c0.759-.011,26.433-0.081,29.024-0.081C82.3,461.007,101.545,459.948,101.545,482.849Zm5.032,5.884c0-.007,4.162,0,7.356,0h7.515c0,6.107,2.915,10.091,7.138,10.184,11.73-.024,19.072-0.029,28.2-0.029v15.071c-0.759.011-26.873-.006-29.463-0.006C124.953,513.953,106.577,514.47,106.577,488.733Zm-90.908.806h36.06V504.53H15.669V489.539Zm0-28.451h36.06v14.991H15.669V461.088ZM207,488.733c0-.007-3.668,0-7.435,0h-7.436c0,6.1-2.907,10.063-7.132,10.156-11.734-.024-19.074,0-28.208,0v15.071c0.759,0.011,26.879-.041,29.47-0.041C188.631,513.918,207,514.457,207,488.733Zm0-2.338c0,0.006-3.668,0-7.435,0h-7.436c0-6.1-2.907-10.189-7.132-10.282-11.734.024-19.079,0-28.212,0,0-.361,0-14.719,0-15.025,0.759-.011,26.879,0,29.47,0C188.631,461.084,207,460.671,207,486.4Zm-14.871,0H207v2.338H192.128V486.4Zm-85.551-.08c0,0.006,3.67,0,7.435,0h7.436c0-6.108,2.915-10.092,7.138-10.185,11.73,0.024,19.072,0,28.2,0,0-.361,0-14.736,0-15.042-0.759-.011-26.873.006-29.463,0.006C124.953,461.094,106.577,460.578,106.577,486.315Zm14.871,2.418H106.577v-2.418h14.871v2.418Z" transform="translate(0 -461)"/>
      <path id="Прямоугольник_5_копия-2" data-name="Прямоугольник 5 копия" class="cls-1" d="M624,488.733c0-.007-3.669,0-7.435,0h-7.436c0,6.1-2.907,10.063-7.132,10.156-11.734-.024-19.074,0-28.208,0v15.071c0.76,0.011,26.879-.041,29.47-0.041C605.631,513.918,624,514.457,624,488.733ZM609.128,486.4H624v2.338H609.128V486.4Zm-85.551-.08c0,0.006,3.67,0,7.435,0h7.436c0-6.108,2.915-10.092,7.138-10.185,11.73,0.024,19.072,0,28.2,0,0-.361,0-14.736,0-15.042-0.759-.011-26.873.006-29.463,0.006C541.953,461.094,523.577,460.578,523.577,486.315Zm0,2.418c0-.007,4.162,0,7.356,0h7.515c0,6.107,2.915,10.091,7.138,10.184,11.73-.024,19.072-0.029,28.2-0.029v15.071c-0.759.011-26.873-.006-29.463-0.006C541.953,513.953,523.577,514.47,523.577,488.733Zm14.871,0H523.577v-2.418h14.871v2.418Zm78.116,0h0ZM624,486.4c0,0.006-3.669,0-7.435,0h-7.436c0-6.1-2.907-10.189-7.132-10.282-11.734.024-19.079,0-28.212,0,0-.361,0-14.719,0-15.025,0.76-.011,26.879,0,29.47,0C605.631,461.084,624,460.671,624,486.4Zm0,2.338h0Z" transform="translate(0 -461)"/>
      <rect id="Прямоугольник_1" data-name="Прямоугольник 1" class="cls-2" x="212" width="100" height="15"/>
      <path id="Прямоугольник_1_копия_2" data-name="Прямоугольник 1 копия 2" class="cls-1" d="M212,498l94-36,6,14-95,37Z" transform="translate(0 -461)"/>
      <path id="Прямоугольник_1_копия" data-name="Прямоугольник 1 копия" class="cls-1" d="M311,514H212V499h99v15Z" transform="translate(0 -461)"/>
      <path id="Прямоугольник_2" data-name="Прямоугольник 2" class="cls-1" d="M337,461v53H319V461h18Z" transform="translate(0 -461)"/>
      <path id="Прямоугольник_2_копия_2" data-name="Прямоугольник 2 копия 2" class="cls-1" d="M418,461v53H401V461h17Z" transform="translate(0 -461)"/>
      <path id="Прямоугольник_2_копия_3" data-name="Прямоугольник 2 копия 3" class="cls-1" d="M442,461v53H425V461h17Z" transform="translate(0 -461)"/>
      <path id="Прямоугольник_2_копия" data-name="Прямоугольник 2 копия" class="cls-1" d="M418,495H319V480h99v15Z" transform="translate(0 -461)"/>
      <path id="Прямоугольник_2_копия_5" data-name="Прямоугольник 2 копия 5" class="cls-1" d="M409,495H333V480h76v15Z" transform="translate(0 -461)"/>
      <path id="Прямоугольник_1_копия_3" data-name="Прямоугольник 1 копия 3" class="cls-1" d="M638.5,461l41.618,41.817L670.2,512.6,619,461h19.5Z" transform="translate(0 -461)"/>
      <path id="Прямоугольник_1_копия_3-2" data-name="Прямоугольник 1 копия 3" class="cls-1" d="M723,461l-52,52-10.416-10.251L702.571,461H723Z" transform="translate(0 -461)"/>
      <path id="Прямоугольник_1_копия_4" data-name="Прямоугольник 1 копия 4" class="cls-1" d="M525,461l-83.3,53-10.687-10.448L498.273,461H525Z" transform="translate(0 -461)"/>
      <path id="Прямоугольник_1_копия_5" data-name="Прямоугольник 1 копия 5" class="cls-1" d="M525,513l-53.3-34-10.687,10.448L498.273,513H525Z" transform="translate(0 -461)"/>
      <path id="Прямоугольник_1_копия_8" data-name="Прямоугольник 1 копия 8" class="cls-1" d="M176.81,538l38.913,31.994h17.512c0.009,0,0-4,0-4l-34.05-28H176.81Z" transform="translate(0 -461)"/>
      <path id="Прямоугольник_1_копия_9" data-name="Прямоугольник 1 копия 9" class="cls-1" d="M272.148,538l-38.913,31.994H215.723c-0.009,0,0-4,0-4l34.05-28h22.375Z" transform="translate(0 -461)"/>
      <path id="Прямоугольник_1_копия_3-3" data-name="Прямоугольник 1 копия 3" class="cls-1" d="M377.215,538l-50.588,51.991L318,580l39.341-42h19.874Z" transform="translate(0 -461)"/>
      <path id="Прямоугольник_5_копия-3" data-name="Прямоугольник 5 копия" class="cls-1" d="M97.709,564.728c0-.006-3.57,0-7.234,0H83.242c0,6.1-2.828,10.062-6.938,10.155-11.416-.025-18.556,0-27.442,0V589.95c0.739,0.011,26.149-.041,28.669-0.041C79.84,589.909,97.709,590.448,97.709,564.728Zm0-2.337c0,0.006-3.57,0-7.234,0H83.242c0-6.1-2.828-10.188-6.938-10.281-11.416.025-18.561,0-27.446,0,0-.361,0-14.716,0-15.022,0.739-.011,26.149,0,28.669,0C79.84,537.084,97.709,536.671,97.709,562.391Zm-14.468,0H97.709v2.337H83.242v-2.337ZM7.248,562.31h0Zm7.234,2.418h0ZM0.014,562.31c0,0.007,3.571,0,7.234,0h7.234c0-6.106,2.836-10.089,6.944-10.182,11.411,0.024,18.553,0,27.435,0,0-.362,0-14.734,0-15.04-0.739-.011-26.144.006-28.663,0.006C17.891,537.094.014,536.578,0.014,562.31Zm0,2.418c0-.006,4.049,0,7.156,0h7.311c0,6.107,2.836,10.09,6.944,10.183,11.411-.025,18.554-0.03,27.436-0.03V589.95c-0.739.011-26.144-.006-28.663-0.006C17.891,589.944.014,590.46,0.014,564.728Zm14.468,0H0.014V562.31H14.482v2.418Z" transform="translate(0 -461)"/>
      <path id="Прямоугольник_2-2" data-name="Прямоугольник 2" class="cls-1" d="M122.031,537v52.991H104.519V537h17.512Z" transform="translate(0 -461)"/>
      <path id="Прямоугольник_2_копия_6" data-name="Прямоугольник 2 копия 6" class="cls-1" d="M294.031,538v52.991H276.519V538h17.512Z" transform="translate(0 -461)"/>
      <path id="Прямоугольник_2_копия_7" data-name="Прямоугольник 2 копия 7" class="cls-1" d="M376.031,538v52.991H358.519V538h17.512Z" transform="translate(0 -461)"/>
      <path id="Прямоугольник_2_копия_4" data-name="Прямоугольник 2 копия 4" class="cls-1" d="M233.235,569.994v21H215.724v-21h17.511Z" transform="translate(0 -461)"/>
      <path id="Прямоугольник_2_копия_5-2" data-name="Прямоугольник 2 копия 5" class="cls-1" d="M200.831,589.991H104.519v-15h96.312v15Z" transform="translate(0 -461)"/>
      <path id="Прямоугольник_2_копия-2" data-name="Прямоугольник 2 копия" class="cls-1" d="M593.583,583.992H540.077V570h53.506v14Z" transform="translate(0 -461)"/>
      <path id="Прямоугольник_2-3" data-name="Прямоугольник 2" class="cls-1" d="M508.946,538v52.991H491.435V538h17.511Z" transform="translate(0 -461)"/>
      <path id="Прямоугольник_1_копия_3-4" data-name="Прямоугольник 1 копия 3" class="cls-1" d="M295.983,538L335,580l-8.174,9.591L277.012,538h18.971Z" transform="translate(0 -461)"/>
      <path id="Прямоугольник_5_копия-4" data-name="Прямоугольник 5 копия" class="cls-1" d="M385.431,590.95L385.4,538.085l14.27,0V590.95H385.431Zm68.371-9.428h10.345a24.231,24.231,0,0,0,4.512-.322M483.2,559.845c0-.006-3.605,0-7.311,0h-7.156c0,6.381-2.877,6.633-6.987,6.726-11.416-.025-18.119-0.037-27-0.037v14.988c0.738,0.011,26.2,0,29.4,0a24.136,24.136,0,0,0,4.512-.322C474.333,580.188,483.2,576,483.2,559.845Zm0,0c0,0.006-3.605,0-7.312,0h-7.156c0-6.38-2.894-6.676-7-6.769-11.416.025-18.105,0-26.99,0V538.088c0.738-.011,25.715-0.081,28.235-0.081C464.49,538.007,483.209,536.948,483.209,559.845Zm-83.544,6.689h35.081v14.988H399.665V566.534Zm0-28.446h35.081v14.988H399.665V538.088Z" transform="translate(0 -461)"/>
      <path id="Прямоугольник_1_копия_3-5" data-name="Прямоугольник 1 копия 3" class="cls-1" d="M598.933,590.991l-40.488-41.81,9.645-9.781L617.9,590.991h-18.97Z" transform="translate(0 -461)"/>
      <path id="Прямоугольник_1_копия_3-6" data-name="Прямоугольник 1 копия 3" class="cls-1" d="M516.728,590.991L567.316,539l10.133,10.249L536.6,590.991H516.728Z" transform="translate(0 -461)"/>
      <path id="Прямоугольник_5_копия-5" data-name="Прямоугольник 5 копия" class="cls-1" d="M722,565.728c0-.006-3.569,0-7.234,0h-7.234c0,6.1-2.827,10.062-6.938,10.155-11.415-.025-18.35.11-27.236,0.11,0,0.361-.205,14.651-0.205,14.957,0.738,0.011,26.149-.041,28.669-0.041C704.128,590.909,722,591.448,722,565.728Zm0-2.337c0,0.006-3.569,0-7.234,0h-7.234c0-6.1-2.827-10.188-6.938-10.281-11.415.025-18.35-.113-27.236-0.113V538c0.739-.011,25.944.084,28.464,0.084C704.128,538.084,722,537.671,722,563.391Zm-14.468,0H722v2.337H707.529v-2.337Zm-82.816-.4c0,0.006,3.147,0,6.81,0h7.783V553c11.411,0.025,25.167,0,34.049,0V538c-0.738-.011-44.525,0-48.642,0v25Zm0,3c0-.006,3.7,0,6.81,0h7.783c0,6.106-.167,5.974,0,10h34.049c0,0.361-.205,14.651-0.205,14.957-25.329,0-42.447.04-48.437,0.04V566Z" transform="translate(0 -461)"/>
      <path id="Прямоугольник_4" data-name="Прямоугольник 4" class="cls-1" d="M625,538.025h15v52.99H625v-52.99Z" transform="translate(0 -461)"/>
    </g>
  </g>
</svg>
